<?xml version="1.0" encoding="utf-8"?>
<!-- Generator: Adobe Illustrator 16.0.0, SVG Export Plug-In . SVG Version: 6.00 Build 0)  -->
<!DOCTYPE svg PUBLIC "-//W3C//DTD SVG 1.1//EN" "http://www.w3.org/Graphics/SVG/1.1/DTD/svg11.dtd">
<svg version="1.1"
	 id="Layer_1" text-rendering="geometricPrecision" shape-rendering="geometricPrecision" image-rendering="optimizeQuality"
	 xmlns="http://www.w3.org/2000/svg" xmlns:xlink="http://www.w3.org/1999/xlink" x="0px" y="0px" width="243.775px"
	 height="255.321px" viewBox="0.289 293.301 243.775 255.321" enable-background="new 0.289 293.301 243.775 255.321"
	 xml:space="preserve">
<path fill="#3E8AC1" d="M240.718,539.676c-1.133-3.115-3.186-5.239-4.673-8c-3.611-4.744-7.859-8.85-12.107-12.956
	c-1.487-0.496-2.124-1.912-3.54-2.479c-0.92-1.203-2.407-1.841-3.61-2.761c-2.407-1.841-5.027-3.398-7.717-4.956
	c-5.098-3.257-11.399-5.311-17.629-7.435c-6.726-1.628-13.806-2.831-21.169-3.822c-7.292-1.063-14.585-2.054-20.107-4.956
	c-3.186-0.921-5.522-2.69-8.283-4.106c-2.549-1.699-5.31-3.115-7.434-5.239c-2.62-1.558-4.248-4.177-6.301-6.301
	c-0.708-1.416-1.911-2.266-2.478-3.823c-0.708-0.283-0.92-1.133-1.345-1.629c-0.496-0.566-0.496-1.699-1.345-1.911
	c-0.425,2.902-0.283,6.372,0,9.345c0.354,1.274,0.496,2.832,0.85,4.106c0.212,1.133,1.274,2.974,0.85,3.823
	c-22.089-1.133-38.232-8.142-52.25-17.346c-6.938-4.602-12.886-10.195-18.408-16.213c-2.407-3.327-5.027-6.514-7.151-10.195
	c-2.195-3.61-4.036-7.717-6.018-11.54c-3.257-8.283-6.301-16.779-7.434-27.188c-1.487-9.699-1.133-22.089,1.062-31.08
	c0.778-4.956,2.407-9.134,3.823-13.452c0.92-1.982,1.912-3.965,2.761-6.019c1.204-1.698,1.841-4.035,3.328-5.521
	c4.036-7.576,10.054-13.24,16.213-18.691c6.655-4.885,14.231-8.85,23.364-11.257c8.779-1.982,20.744-2.337,30.231-0.283
	c19.257,3.965,33.771,12.602,45.949,23.646c12.319,10.833,21.806,24.567,28.32,41.276c6.726,15.859,9.062,40.568,3.044,58.551
	c-2.478-1.416-4.956-2.761-7.434-4.106c-2.974-0.85-5.876-1.841-9.346-2.194c-4.177-0.071-8.283,0-10.974,1.345
	c5.452-0.566,9.841,0.921,13.239,2.195c1.982,0.778,3.115,1.274,4.673,2.194c3.044,1.771,5.735,3.398,8,5.806
	c6.442,5.664,11.044,13.169,13.239,23.081c0,0.283,0.354,0.212,0.283-0.283c0.283-0.071,0.425-0.283,0.566-0.566
	c0.354-0.425,0.779-0.85,1.133-1.346c0.708-0.85,1.416-1.699,1.912-2.761c1.487-1.771,2.69-3.753,3.823-5.806
	c2.62-3.823,4.602-8.213,6.868-12.39c3.894-8.921,7.08-18.55,9.062-29.453c3.965-24.213-0.779-47.152-9.062-64.073
	c-8.496-17.063-20.391-30.727-35.754-40.993c-15.505-10.194-33.629-17.699-58.551-18.407c-0.142-0.496-0.354,0.07-0.85,0
	c-13.169-0.425-23.789,1.416-34.338,4.106c-4.885,1.628-9.982,3.044-14.301,5.239c-4.956,1.628-8.921,4.318-13.452,6.301
	c-1.628,1.558-4.106,2.336-5.805,3.823c-2.195,1.062-3.823,2.761-6.018,3.823c-3.54,3.115-7.292,5.876-10.762,9.063
	c-3.398,3.115-6.372,6.654-9.628,9.911c-0.496,1.133-1.345,1.912-2.195,2.762c-0.566,1.062-1.274,1.982-2.195,2.761
	c-0.354,1.274-1.487,1.771-1.912,3.045c-0.92,0.708-1.133,2.124-2.195,2.761c-0.92,2.266-2.549,3.895-3.611,6.018
	c-1.274,2.054-2.266,4.319-3.54,6.302c-1.982,4.602-4.106,9.063-5.734,14.019c-1.699,4.813-3.115,9.911-4.106,15.434
	c-1.062,5.169-2.053,11.895-1.912,17.346c-0.708,1.982-0.142,5.664,0,8.001c0,0.425-0.283,0.566-0.283,0.85
	c0,2.619,0.708,5.806,0.85,7.434c0.566,6.019,1.628,11.611,3.328,16.496c1.062,5.452,3.328,9.7,4.956,14.585
	c2.478,4.106,4.177,8.991,7.15,12.673c2.195,4.319,5.31,7.718,8.284,11.257c3.186,3.398,6.372,6.868,10.195,9.629
	c7.009,6.089,15.222,10.975,24.213,15.151c16.78,8.142,41.843,13.452,64.357,12.106c5.734-0.778,11.54-1.486,16.779-2.761
	c4.814-1.771,10.407-2.832,16.213-3.54c13.24-0.85,24.709,0.354,34.904,3.327c10.336,2.762,19.257,6.938,26.974,12.39
	c4.106,2.407,7.505,5.522,10.974,8.496c3.54,3.045,6.372,6.797,9.629,10.195c0.425,1.274,1.274,2.195,1.912,3.328
	c0.849,0.92,0.425,3.044,2.478,2.761c1.274-1.274-0.212-3.115-0.283-4.673C241.992,542.579,241.709,540.808,240.718,539.676
	L240.718,539.676z"/>
<path fill="#3E8AC1" d="M189.317,464.345c-0.283,0-0.354,0.212-0.566,0.283c-0.496,1.062-0.283,2.761,0,3.823
	c1.487,3.044,1.982,7.009,5.239,8.283c1.558-0.495,1.416-2.761,1.345-4.956c-0.708-2.69-1.699-5.098-3.327-6.867
	C190.875,464.487,190.096,463.779,189.317,464.345z M170.06,472.062c0-0.142-0.212-0.283-0.283,0
	c-2.69-0.354-3.611,1.133-4.956,2.195c-2.336,6.159,1.416,12.177,8,12.106c2.62-0.638,4.248-2.337,4.673-5.239
	C177.14,475.957,174.945,472.629,170.06,472.062L170.06,472.062z"/>
</svg>
