<?xml version="1.0" encoding="utf-8"?>
<!-- Generator: Adobe Illustrator 16.0.0, SVG Export Plug-In . SVG Version: 6.00 Build 0)  -->
<!DOCTYPE svg PUBLIC "-//W3C//DTD SVG 1.1//EN" "http://www.w3.org/Graphics/SVG/1.1/DTD/svg11.dtd">
<svg version="1.1" id="Layer_1" xmlns="http://www.w3.org/2000/svg" xmlns:xlink="http://www.w3.org/1999/xlink" x="0px" y="0px"
	 width="199.964px" height="196.923px" viewBox="395.536 51.039 199.964 196.923"
	 enable-background="new 395.536 51.039 199.964 196.923" xml:space="preserve">
<path id="Combined-Shape" fill="#036CB5" d="M495.042,51.039c15.601,0,30.443,3.574,43.763,9.968
	c2.089,0.942,4.191,2.07,6.273,3.199l-9.133,8.09l-13.691-14.107l-23.592,20.688L484.77,64.016l-43.382,38.561l27.774,30.283
	l-10.843,9.402l27.402,30.283l-10.844,9.398l39.197,43.074l23.199-21.067l20.178,22.577c-3.999,3.01-8.375,6.025-13.126,8.654
	c-14.463,8.087-31.209,12.78-49.092,12.78c-54.992,0-99.698-44.192-99.698-98.546C395.342,95.43,440.056,51.039,495.042,51.039z
	 M476.773,143.393l23.784-21.067l21.314,23.511l-23.789,21.065L476.773,143.393z M493.712,184.021l23.591-21.254l21.502,23.509
	l-23.785,21.068L493.712,184.021z M459.85,103.331l23.777-21.067l21.31,23.511l-23.785,21.066L459.85,103.331z M503.412,92.042
	l17.696-15.799l15.986,17.493l-17.696,15.985L503.412,92.042z M535,164.457l17.69-15.8l15.985,17.676l-17.697,15.81L535,164.457z
	 M550.6,200.01l17.697-15.803l15.973,17.492l-17.69,15.983L550.6,200.01z M557.831,118.751l11.795-10.534l10.651,11.666
	l-11.793,10.53L557.831,118.751z M542.609,83.954l11.796-10.719l10.659,11.848L553.26,95.616L542.609,83.954z M572.86,153.551
	l11.795-10.533L595.5,154.68l-11.982,10.53L572.86,153.551z M519.777,127.405l17.697-15.8l15.979,17.489l-17.689,15.803
	L519.777,127.405z"/>
</svg>
