<?xml version="1.0" standalone="no"?>
<!DOCTYPE svg PUBLIC "-//W3C//DTD SVG 20010904//EN"
 "http://www.w3.org/TR/2001/REC-SVG-20010904/DTD/svg10.dtd">
<svg version="1.0" xmlns="http://www.w3.org/2000/svg"
 width="100.000000pt" height="100.000000pt" viewBox="0 0 100.000000 100.000000"
 preserveAspectRatio="xMidYMid meet">
<metadata>
Created by potrace 1.11, written by Peter Selinger 2001-2013
</metadata>
<g transform="translate(0.000000,100.000000) scale(0.100000,-0.100000)"
fill="#000000" stroke="none">
<path d="M154 985 c3 -9 2 -13 -4 -10 -6 3 -10 -1 -11 -9 -3 -41 -1 -62 5 -78
4 -9 3 -26 -4 -37 -6 -12 -7 -21 -1 -21 5 0 12 6 14 13 4 7 6 8 6 1 1 -6 -6
-17 -14 -24 -17 -14 -20 -30 -4 -30 5 0 7 6 3 13 -4 6 -3 9 1 4 5 -4 9 -16 10
-27 1 -16 -1 -17 -12 -8 -11 9 -13 8 -11 -3 2 -8 7 -17 12 -21 14 -10 15 -47
1 -42 -6 3 -12 -2 -12 -10 0 -8 4 -13 9 -10 13 8 10 -10 -4 -25 -11 -12 -10
-13 6 -7 20 7 20 7 0 -15 -10 -12 -13 -19 -6 -15 6 4 12 3 12 -1 0 -5 -6 -15
-12 -22 -11 -12 -10 -13 6 -7 20 7 20 7 0 -15 -10 -12 -14 -19 -8 -16 15 9 26
-45 12 -58 -8 -7 -9 -6 -4 2 4 7 3 21 -3 30 -8 15 -9 14 -7 -7 2 -14 6 -32 10
-41 4 -8 2 -28 -4 -43 -8 -23 -8 -27 4 -23 11 5 13 0 6 -23 -5 -16 -11 -34
-15 -40 -3 -5 -2 -10 4 -10 5 0 12 6 14 13 4 7 6 8 6 1 1 -6 -6 -17 -14 -24
-17 -14 -20 -30 -4 -30 5 0 7 6 3 13 -4 6 -3 9 1 4 5 -4 9 -16 10 -27 1 -16
-1 -17 -12 -8 -11 9 -13 8 -11 -3 2 -8 7 -17 12 -21 14 -9 15 -47 1 -42 -6 3
-11 -5 -12 -16 -1 -11 3 -20 8 -20 6 0 7 5 3 12 -4 6 -3 8 3 5 11 -7 10 -43
-2 -54 -4 -5 -5 -2 -1 5 4 6 3 12 -3 12 -5 0 -9 -9 -8 -20 1 -14 6 -19 16 -15
13 5 12 3 -1 -12 -20 -24 -20 -56 1 -48 12 5 12 2 -2 -13 -19 -21 -22 -32 -6
-32 5 0 7 5 3 12 -5 7 -3 8 5 3 9 -5 10 -10 2 -18 -6 -6 -11 -14 -11 -19 0 -9
680 -11 704 -2 14 5 14 9 4 22 -8 10 -8 13 -2 9 7 -4 15 0 18 9 3 8 2 12 -4 9
-6 -3 -10 5 -10 19 0 14 5 28 10 31 16 10 12 25 -7 25 -17 1 -17 1 0 11 19 11
23 29 6 29 -5 0 -7 -5 -3 -12 4 -7 3 -8 -5 -4 -9 6 -9 11 -1 21 8 10 8 15 -1
21 -8 5 -10 3 -5 -7 4 -8 1 -6 -7 4 -11 14 -16 15 -20 5 -4 -11 -6 -11 -6 0
-1 8 -6 10 -13 5 -18 -10 -58 -12 -52 -1 3 4 0 8 -5 8 -6 0 -11 -5 -11 -11 0
-6 -5 -7 -12 -2 -17 10 -39 13 -33 4 2 -4 -2 -8 -10 -8 -8 0 -12 4 -9 9 3 4 0
8 -5 8 -6 0 -11 -5 -11 -11 0 -6 -5 -7 -12 -2 -17 10 -39 13 -33 4 2 -4 -2 -8
-10 -8 -8 0 -12 4 -9 9 3 4 0 8 -5 8 -6 0 -11 -5 -11 -11 0 -6 -5 -7 -12 -2
-17 10 -39 13 -33 4 2 -4 -2 -8 -10 -8 -8 0 -12 4 -9 9 3 4 1 8 -5 8 -5 0 -12
-6 -14 -12 -4 -10 -8 -9 -16 2 -9 13 -11 13 -11 1 0 -11 -4 -10 -13 4 -11 14
-16 15 -22 5 -6 -9 -4 -11 6 -5 8 5 10 4 6 0 -11 -13 -38 -15 -30 -2 4 6 0 8
-9 4 -25 -9 -30 4 -11 25 13 15 14 19 3 16 -7 -2 -16 6 -18 17 -2 11 -9 24
-16 28 -6 5 -2 6 9 3 16 -5 21 -1 22 14 1 11 -3 20 -8 20 -6 0 -7 -4 -4 -10 3
-6 -1 -7 -10 -3 -9 3 -12 9 -7 12 5 3 10 18 10 33 0 16 -5 25 -11 21 -6 -3 -7
-1 -3 6 6 9 11 9 24 -1 14 -12 14 -10 2 12 -8 14 -13 33 -11 43 1 9 -4 17 -11
17 -8 0 -9 3 -3 8 15 11 19 46 4 36 -8 -5 -10 -3 -4 5 5 9 10 10 18 2 6 -6 16
-11 22 -11 5 0 2 5 -8 11 -9 6 -15 14 -12 20 3 5 0 7 -7 6 -7 -2 -10 -2 -5 0
4 3 5 9 2 14 -4 5 0 6 8 4 10 -4 13 4 12 30 -2 31 -15 65 -15 37 0 -7 -5 -12
-11 -12 -8 0 -8 4 0 13 8 10 7 17 -2 27 -6 8 2 5 18 -5 19 -12 26 -13 19 -4
-6 8 -10 22 -9 32 2 9 -1 17 -7 17 -6 0 -7 -7 -4 -16 3 -9 2 -12 -5 -9 -5 4
-7 16 -3 27 4 15 3 18 -6 13 -9 -5 -11 -4 -6 4 6 9 11 9 24 -1 14 -12 14 -10
2 12 -8 14 -13 33 -11 43 1 9 -4 17 -11 17 -11 0 -10 2 0 9 8 4 13 11 13 15
-3 20 1 25 17 20 14 -5 14 -4 2 4 -9 7 -19 7 -25 2 -8 -7 -12 -5 -12 5 0 8 4
12 9 9 13 -8 10 10 -4 25 -10 11 -10 13 0 7 11 -7 18 24 13 63 -2 7 2 10 8 6
7 -3 8 0 5 9 -3 9 -10 14 -14 11 -5 -3 -11 -1 -14 4 -4 5 -1 13 5 17 8 5 9 3
4 -6 -5 -9 -4 -11 4 -6 26 17 -5 24 -110 25 -99 2 -111 0 -105 -14z m-3 -78
c-10 -9 -11 -8 -5 6 3 10 9 15 12 12 3 -3 0 -11 -7 -18z m226 -333 c-3 -3 -12
-4 -19 -1 -8 3 -5 6 6 6 11 1 17 -2 13 -5z m-3 -332 c2 -4 -4 -8 -14 -8 -10 0
-16 4 -14 8 3 4 9 8 14 8 5 0 11 -4 14 -8z m-219 -142 c3 -5 1 -10 -4 -10 -6
0 -11 5 -11 10 0 6 2 10 4 10 3 0 8 -4 11 -10z"/>
<path d="M375 860 c3 -5 8 -10 11 -10 2 0 4 5 4 10 0 6 -5 10 -11 10 -5 0 -7
-4 -4 -10z"/>
<path d="M373 795 c0 -8 4 -12 9 -9 4 3 8 9 8 15 0 5 -4 9 -8 9 -5 0 -9 -7 -9
-15z"/>
<path d="M373 475 c0 -8 4 -12 9 -9 4 3 8 9 8 15 0 5 -4 9 -8 9 -5 0 -9 -7 -9
-15z"/>
</g>
</svg>
